<?xml version="1.0" encoding="iso-8859-1"?>
<!-- Generator: Adobe Illustrator 19.0.0, SVG Export Plug-In . SVG Version: 6.00 Build 0)  -->
<svg version="1.1" id="Layer_1" xmlns="http://www.w3.org/2000/svg" xmlns:xlink="http://www.w3.org/1999/xlink" x="0px" y="0px"
	 viewBox="0 0 512.002 512.002" style="enable-background:new 0 0 512.002 512.002;" xml:space="preserve">
<path style="fill:#4596E6;" d="M12.505,298.672L155.49,155.931L298.735,12.932c16.685-16.657,43.834-16.657,60.52,0l0.398,0.397
	c7.212,7.202,9.994,17.675,7.263,27.329c-1.636,5.782-0.015,12.005,4.228,16.242c4.244,4.236,10.48,5.853,16.268,4.222
	c9.673-2.726,20.166,0.049,27.381,7.251l29.159,29.109c7.212,7.202,9.994,17.675,7.262,27.329
	c-1.636,5.782-0.015,12.005,4.228,16.242c4.244,4.235,10.478,5.856,16.268,4.222c9.675-2.726,20.166,0.049,27.381,7.251l0.397,0.395
	c16.685,16.657,16.685,43.759,0,60.416l-142.55,142.303L213.255,499.079c-8.064,8.05-18.81,12.484-30.261,12.484
	s-22.197-4.434-30.26-12.484c-7.392-7.379-10.044-18.175-6.92-28.174c1.846-5.911,0.274-12.296-4.098-16.662
	c-4.373-4.366-10.771-5.933-16.688-4.092c-10.021,3.118-20.835,0.47-28.225-6.908l-28.365-28.317
	c-7.392-7.379-10.044-18.175-6.92-28.174c1.846-5.911,0.274-12.296-4.098-16.661c-4.373-4.366-10.771-5.936-16.688-4.093
	c-10.021,3.118-20.834,0.472-28.225-6.908C4.441,351.039,0,340.311,0,328.88C0,317.45,4.441,306.721,12.505,298.672z"/>
<path style="fill:#006DF0;" d="M12.505,298.672L155.49,155.931l201.448,199.71L213.255,499.079
	c-8.064,8.05-18.81,12.484-30.261,12.484c-11.45,0-22.197-4.434-30.26-12.484c-7.392-7.379-10.044-18.175-6.92-28.174
	c1.846-5.911,0.274-12.296-4.098-16.662c-4.373-4.366-10.771-5.933-16.688-4.092c-10.021,3.118-20.835,0.47-28.225-6.908
	l-28.365-28.317c-7.392-7.379-10.044-18.175-6.92-28.174c1.846-5.911,0.274-12.296-4.098-16.661
	c-4.373-4.366-10.771-5.936-16.688-4.093c-10.021,3.118-20.834,0.472-28.225-6.908C4.441,351.039,0,340.311,0,328.88
	C0,317.45,4.441,306.721,12.505,298.672z"/>
<g>
	<path style="fill:#D7EBFF;" d="M404.355,213.429c4.715,0,9.428-1.798,13.025-5.396c7.194-7.194,7.194-18.858,0-26.052
		L372.02,136.62l-45.824-45.823c-7.194-7.194-18.858-7.194-26.052,0c-7.194,7.194-7.194,18.858,0,26.052l39.944,39.944l51.24,51.24
		C394.925,211.631,399.641,213.429,404.355,213.429z"/>
	<path style="fill:#D7EBFF;" d="M341.049,222.583c4.715,0,9.428-1.798,13.025-5.396c7.194-7.194,7.194-18.858,0-26.052
		l-17.939-17.938L317.6,154.661c-7.194-7.194-18.858-7.193-26.052,0c-7.194,7.194-7.194,18.858,0,26.052l15.221,15.22l21.253,21.253
		C331.619,220.783,336.334,222.583,341.049,222.583z"/>
</g>
<g>
	<path style="fill:#BDDEFF;" d="M99.643,292.587l35.605-35.605c6.251-6.251,14.579-9.695,23.447-9.695
		c8.868,0,17.195,3.444,23.447,9.695l70.341,70.341c6.251,6.251,9.695,14.579,9.695,23.447c0,8.868-3.444,17.195-9.695,23.447
		l-35.605,35.605c-6.251,6.251-14.579,9.695-23.447,9.695c-8.868,0-17.195-3.444-23.447-9.695l-70.341-70.341
		c-6.251-6.251-9.695-14.579-9.695-23.447S93.391,298.838,99.643,292.587z"/>
	<path style="fill:#BDDEFF;" d="M300.145,90.799c7.194-7.194,18.858-7.194,26.052,0l45.824,45.823l-25.85,26.255l-46.026-46.026
		C292.952,109.657,292.952,97.993,300.145,90.799z"/>
	<path style="fill:#BDDEFF;" d="M291.548,154.661c7.194-7.194,18.858-7.194,26.052,0l18.422,18.422l-25.85,26.255l-18.626-18.624
		C284.355,173.519,284.355,161.856,291.548,154.661z"/>
</g>
<g>
</g>
<g>
</g>
<g>
</g>
<g>
</g>
<g>
</g>
<g>
</g>
<g>
</g>
<g>
</g>
<g>
</g>
<g>
</g>
<g>
</g>
<g>
</g>
<g>
</g>
<g>
</g>
<g>
</g>
</svg>
